# AST/ASF file generated using VICON BodyLanguage
# -----------------------------------------------
:version 1.10
:name VICON
:units
  mass 1.0
  length 0.45
  angle deg
:documentation
   .ast/.asf automatically generated from VICON data using
   VICON BodyBuilder and BodyLanguage model FoxedUp or BRILLIANT.MOD
:root
   order TX TY TZ RX RY RZ
   axis XYZ
   position 0 0 0  
   orientation 0 0 0 
:bonedata
  begin
     id 1 
     name lhipjoint
     direction 0.602128 -0.715006 0.355257 
     length 2.21237 
     axis 0 0 0  XYZ
  end
  begin
     id 2 
     name lfemur
     direction 0.34202 -0.939693 0  
     length 6.71649  
     axis 0 0 20  XYZ
    dof rx ry rz
    limits (-160.0 20.0)
           (-70.0 70.0)
           (-60.0 70.0)
  end
  begin
     id 3 
     name ltibia
     direction 0.34202 -0.939693 0   
     length 6.97123   
     axis 0 0 20   XYZ
    dof rx
    limits (-10.0 170.0)
  end
  begin
     id 4 
     name lfoot
     direction 0.0655697 -0.180151 0.981451   
     length 1.80924   
     axis -90 7.62852e-016 20   XYZ
    dof rx rz
    limits (-45.0 90.0)
           (-70.0 20.0)
  end
  begin
     id 5 
     name ltoes
     direction 1.53545e-011 -4.21827e-011 1   
     length 0.916331   
     axis -90 7.62852e-016 20   XYZ
    dof rx
    limits (-90.0 20.0)
  end
  begin
     id 6 
     name rhipjoint
     direction -0.625414 -0.698792 0.347201   
     length 2.2637  
     axis 0 0 0  XYZ 
  end
  begin
     id 7 
     name rfemur
     direction -0.34202 -0.939693 0   
     length 7.07595   
     axis 0 0 -20   XYZ
    dof rx ry rz
    limits (-160.0 20.0)
           (-70.0 70.0)
           (-70.0 60.0)
  end
  begin
     id 8 
     name rtibia
     direction -0.34202 -0.939693 0   
     length 7.22924   
     axis 0 0 -20   XYZ
    dof rx
    limits (-10.0 170.0)
 end
 begin
     id 9 
     name rfoot
     direction -0.0766747 -0.210662 0.974547   
     length 1.98482  
     axis -90 -7.62852e-016 -20   XYZ
    dof rx rz
    limits (-45.0 90.0)
           (-20.0 70.0)
  end
  begin
     id 10 
     name rtoes
     direction -1.53532e-011 -4.21867e-011 1   
     length 0.999842   
     axis -90 -7.62852e-016 -20   XYZ
    dof rx
    limits (-90.0 20.0)
  end
  begin
     id 11 
     name lowerback
     direction -0.0224668 0.997354 -0.0691422   
     length 2.09945   
     axis 0 0 0   XYZ
    dof rx ry rz
    limits (-20.0 45.0)
           (-30.0 30.0)
           (-30.0 30.0)
  end
  begin
     id 12 
     name upperback
     direction 0.0134698 0.998451 -0.0539888   
     length 2.09758   
     axis 0 0 0   XYZ
    dof rx ry rz
    limits (-20.0 45.0)
           (-30.0 30.0)
           (-30.0 30.0)
  end
  begin
     id 13 
     name thorax
     direction 0.0241905 0.99948 -0.0213333   
     length 2.10428   
     axis 0 0 0   XYZ
    dof rx ry rz
    limits (-20.0 45.0)
           (-30.0 30.0)
           (-30.0 30.0)
  end
  begin
     id 14 
     name lowerneck
     direction -0.00866847 0.995978 0.0891737   
     length 1.3959   
     axis 0 0 0   XYZ
    dof rx ry rz
    limits (-20.0 45.0)
           (-30.0 30.0)
           (-30.0 30.0)
  end
  begin
     id 15 
     name upperneck
     direction 0.0680679 0.992203 0.104404   
     length 1.39452   
     axis 0 0 0   XYZ
    dof rx ry rz
    limits (-20.0 45.0)
           (-30.0 30.0)
           (-30.0 30.0)
  end
  begin
     id 16
     name head
     direction 0.0242216 0.999358 0.0264054  
     length 1.40433  
     axis 0 0 0   XYZ
    dof rx ry rz
    limits (-20.0 45.0)
           (-30.0 30.0)
           (-30.0 30.0)
  end
  begin
     id 17 
     name lclavicle
     direction 0.929368 0.362991 -0.0671771  
     length 3.04887  
     axis 0 0 0   XYZ
    dof ry rz
    limits (-20.0 10.0)
           (0.0 20.0)
  end
  begin
     id 18 
     name lhumerus
     direction 1 -4.48967e-011 -7.13741e-028   
     length 4.77195   
     axis -180 -30 -90   XYZ
    dof rx ry rz
    limits (-60.0 90.0)
           (-90.0 90.0)
           (-90.0 90.0)
  end
  begin
     id 19
     name lradius
     direction 1 -4.48977e-011 3.60404e-027   
     length 2.98444   
     axis -180 -30 -90   XYZ
    dof rx
    limits (-10.0 170.0)
  end
  begin
     id 20
     name lwrist
     direction 1 -4.48997e-011 7.54877e-027   
     length 1.49222   
     axis -7.18178e-015 90 90   XYZ
    dof ry
    limits (-180.0 0.0)
 end
  begin
     id 21 
     name lhand
     direction 1 -4.489e-011 1.51105e-026   
     length 0.992285   
     axis -9.63605e-015 90 90   XYZ
    dof rx rz
    limits (-90.0 90.0)
           (-45.0 45.0)
  end
  begin
     id 22 
     name lfingers
     direction 1 -4.48998e-011 3.01948e-026   
     length 0.800006   
     axis -1.92718e-014 90 90   XYZ
    dof rx
    limits (0.0 90.0)
  end
  begin
     id 23
     name lthumb
     direction 0.707107 -6.34881e-011 0.707107   
     length 1.14865   
     axis -90 45 -3.53137e-014   XYZ
    dof rx rz
    limits (-45.0 45.0)
           (-45.0 45.0)
  end
  begin
     id 24 
     name rclavicle
     direction -0.945672 0.324529 0.0196374   
     length 3.4236  
     axis 0 0 0   XYZ 
    dof ry rz
    limits (-10.0 20.0)
           (-20.0 0.0)
  end
  begin
     id 25 
     name rhumerus
     direction -1 -4.4896e-011 1.02757e-029  
     length 4.62052   
     axis -180 30 90   XYZ
    dof rx ry rz
    limits (-90.0 60.0)
           (-90.0 90.0)
           (-90.0 90.0)
  end
  begin
     id 26 
     name rradius
     direction -1 -4.48982e-011 3.85962e-027   
     length 2.95332   
     axis -180 30 90   XYZ
    dof rx
    limits (-10.0 170.0)
  end
  begin
     id 27 
     name rwrist
     direction -1 -4.48961e-011 7.55118e-027   
     length 1.47666   
     axis -7.18178e-015 -90 -90   XYZ
    dof ry
    limits (-180.0 0.0)
  end
  begin
     id 28
     name rhand
     direction -1 -4.48984e-011 1.50994e-026   
     length 0.990956   
     axis -9.63605e-015 -90 -90   XYZ
    dof rx rz
    limits (-90.0 90.0)
           (-45.0 45.0)
  end
  begin
     id 29
     name rfingers
     direction -1 -4.4892e-011 3.02158e-026   
     length 0.798934   
     axis -1.92718e-014 -90 -90   XYZ
    dof rx
    limits (0.0 90.0)
  end
  begin
     id 30
     name rthumb
     direction -0.707107 -6.34916e-011 0.707107   
     length 1.14711   
     axis -90 -45 3.53137e-014   XYZ
    dof rx rz
    limits (-45.0 45.0)
           (-45.0 45.0)
  end
:hierarchy
  begin
    root lhipjoint rhipjoint lowerback
    lhipjoint lfemur
    lfemur ltibia
    ltibia lfoot
    lfoot ltoes
    rhipjoint rfemur
    rfemur rtibia
    rtibia rfoot
    rfoot rtoes
    lowerback upperback
    upperback thorax
    thorax lowerneck lclavicle rclavicle
    lowerneck upperneck
    upperneck head
    lclavicle lhumerus
    lhumerus lradius
    lradius lwrist
    lwrist lhand lthumb
    lhand lfingers
    rclavicle rhumerus
    rhumerus rradius
    rradius rwrist
    rwrist rhand rthumb
    rhand rfingers
  end

#!OML:ASF H:\ManfredObstacles\Project 1\Capture day 1\Session 1\Male.ASF
:FULLY-SPECIFIED
:DEGREES
193
root 17.2997 16.2418 18.6132 -172.184 -12.6154 -178.929
lowerback -10.3233 -3.88383 -3.04873
upperback 1.59026 -4.91102 1.52217
thorax 7.87794 -2.57095 2.47663
lowerneck 1.14783 -1.83344 -5.78982
upperneck -6.63675 -2.40334 7.61207
head -2.17364 -1.33908 3.59106
rclavicle -1.50828e-014 6.60959e-015
rhumerus -42.1378 -34.2865 -64.6025
rradius 20.8316
rwrist 42.2187
rhand -0.127679 -6.4183
rfingers 7.12502
rthumb 25.4681 -34.7366
lclavicle -1.50828e-014 6.60959e-015
lhumerus -29.9704 17.502 81.1437
lradius 17.9704
lwrist -33.0593
lhand -7.8879 9.37117
lfingers 7.12502
lthumb 18.0167 38.5567
rfemur -30.4586 -4.03738 21.7467
rtibia 27.2232
rfoot -7.00951 8.64875
rtoes 19.1458
lfemur 3.28385 -8.80132 -17.8911
ltibia 22.5838
lfoot 3.57462 -9.4359
ltoes -6.74225
194
root 17.3297 16.2536 18.4274 -172.253 -12.4705 -178.689
lowerback -10.3035 -3.62124 -2.66638
upperback 1.50214 -4.60289 1.42481
thorax 7.70749 -2.39907 2.2203
lowerneck 1.21714 -1.78792 -5.73645
upperneck -6.39434 -2.33999 7.65102
head -2.11072 -1.3049 3.58918
rclavicle 5.47776e-014 -9.24349e-015
rhumerus -41.767 -33.0597 -65.7292
rradius 21.6562
rwrist 40.3407
rhand 0.0253085 -6.46155
rfingers 7.12502
rthumb 25.6146 -34.7588
lclavicle 5.47776e-014 -9.24349e-015
lhumerus -30.5094 17.3712 80.6383
lradius 18.0746
lwrist -33.2551
lhand -7.83295 9.12782
lfingers 7.12502
lthumb 18.0696 38.3085
rfemur -29.6245 -4.366 22.3453
rtibia 27.048
rfoot -7.56085 9.46702
rtoes 19.8001
lfemur 1.58406 -8.18096 -17.4985
ltibia 26.632
lfoot 5.11917 -8.50465
ltoes -6.94789
195
root 17.3574 16.2735 18.2396 -172.435 -12.2293 -178.511
lowerback -10.2378 -3.39492 -2.43423
upperback 1.49213 -4.32834 1.37656
thorax 7.61815 -2.25336 2.09242
lowerneck 1.38761 -1.66622 -5.79936
upperneck -6.29292 -2.18033 7.63295
head -2.12035 -1.22107 3.59417
rclavicle -1.34055e-014 1.09332e-015
rhumerus -41.1909 -31.9261 -66.6396
rradius 22.1959
rwrist 38.8347
rhand 0.035067 -6.42119
rfingers 7.12502
rthumb 25.624 -34.7171
lclavicle -1.34055e-014 1.09332e-015
lhumerus -31.0774 17.8712 79.9989
lradius 18.217
lwrist -33.7427
lhand -7.86159 8.72651
lfingers 7.12502
lthumb 18.042 37.9097
rfemur -28.6872 -4.6876 22.8475
rtibia 26.871
rfoot -8.28017 10.2712
rtoes 19.6703
lfemur -0.0820733 -7.20103 -17.1714
ltibia 30.8003
lfoot 6.76498 -7.55044
ltoes -7.15483
196
root 17.3834 16.2967 18.0622 -172.499 -12.1108 -178.428
lowerback -10.1527 -3.24666 -2.32524
upperback 1.47767 -4.14625 1.37674
thorax 7.53426 -2.15951 2.0685
lowerneck 1.42643 -1.5433 -5.88661
upperneck -6.17786 -2.02138 7.4574
head -2.1017 -1.13017 3.54524
rclavicle -1.54058e-014 -1.09332e-015
rhumerus -40.3381 -30.8347 -67.4759
rradius 22.6255
rwrist 37.5814
rhand 0.239689 -6.47887
rfingers 7.12502
rthumb 25.8199 -34.7464
lclavicle -1.54058e-014 -1.09332e-015
lhumerus -31.5788 18.382 79.4877
lradius 18.4133
lwrist -33.8682
lhand -7.9623 8.80067
lfingers 7.12502
lthumb 17.9451 37.9928
rfemur -27.8717 -5.1634 23.2554
rtibia 26.6115
rfoot -9.05873 11.037
rtoes 18.17
lfemur -2.08562 -6.14039 -16.8967
ltibia 35.156
lfoot 8.4233 -6.41469
ltoes -7.67053
197
root 17.4045 16.3205 17.8978 -172.466 -12.1478 -178.315
lowerback -10.0683 -3.04397 -2.00688
upperback 1.42257 -3.91025 1.28331
thorax 7.38277 -2.02728 1.83837
lowerneck 1.30679 -1.4902 -5.84725
upperneck -5.86945 -1.95054 7.28435
head -1.98365 -1.08251 3.46669
rclavicle 4.00054e-014 -5.76476e-015
rhumerus -39.5267 -29.8623 -68.3992
rradius 23.0754
rwrist 36.1811
rhand 0.620838 -6.8887
rfingers 7.12502
rthumb 26.1849 -35.1027
lclavicle 4.00054e-014 -5.76476e-015
lhumerus -31.875 18.1341 79.1935
lradius 18.5881
lwrist -33.1461
lhand -7.99762 9.0976
lfingers 7.12502
lthumb 17.9111 38.2928
rfemur -27.1554 -5.72585 23.6583
rtibia 26.3029
rfoot -9.6963 11.8312
rtoes 16.9925
lfemur -4.4022 -5.10462 -16.6014
ltibia 39.619
lfoot 10.1603 -5.24249
ltoes -8.46736
198
root 17.4231 16.3414 17.7428 -172.512 -12.1737 -178.015
lowerback -9.93699 -2.71531 -1.43401
upperback 1.35088 -3.53516 1.15052
thorax 7.16508 -1.81623 1.44887
lowerneck 1.46525 -1.46294 -5.75591
upperneck -5.65813 -1.91712 7.20015
head -1.94584 -1.06195 3.41778
rclavicle -2.9122e-014 1.39149e-015
rhumerus -38.9616 -29.3668 -69.0362
rradius 23.3118
rwrist 35.3735
rhand 0.721417 -7.06536
rfingers 7.12502
rthumb 26.2812 -35.265
lclavicle -2.9122e-014 1.39149e-015
lhumerus -32.0557 17.7246 78.8896
lradius 18.6613
lwrist -32.2014
lhand -7.97098 9.18486
lfingers 7.12502
lthumb 17.9368 38.3777
rfemur -26.4151 -6.18323 24.213
rtibia 25.9979
rfoot -10.118 12.6326
rtoes 17.3146
lfemur -6.82244 -3.98131 -16.1509
ltibia 44.0975
lfoot 11.8383 -4.2486
ltoes -9.45723
199
root 17.4422 16.3526 17.5948 -172.702 -12.176 -177.824
lowerback -9.62758 -2.4288 -1.13846
upperback 1.32925 -3.18813 1.1062
thorax 6.93104 -1.63343 1.30671
lowerneck 1.77789 -1.33692 -5.63173
upperneck -5.61523 -1.75925 6.88435
head -2.00117 -0.976674 3.28686
rclavicle -1.74061e-014 -2.18663e-015
rhumerus -38.3248 -29.0836 -69.3239
rradius 23.3171
rwrist 35.47
rhand 0.50295 -6.89487
rfingers 7.12502
rthumb 26.072 -35.1255
lclavicle -1.74061e-014 -2.18663e-015
lhumerus -32.2889 17.7749 78.5936
lradius 18.7224
lwrist -31.4743
lhand -8.0375 9.22551
lfingers 7.12502
lthumb 17.8728 38.4242
rfemur -25.5448 -6.6444 24.6298
rtibia 25.6947
rfoot -10.4398 13.3461
rtoes 18.2193
lfemur -9.1573 -2.98535 -15.9188
ltibia 48.4245
lfoot 13.4607 -2.88978
ltoes -7.94697
200
root 17.4598 16.3614 17.4527 -172.87 -12.2575 -177.801
lowerback -9.26775 -2.30288 -1.16554
upperback 1.38432 -3.02422 1.17609
thorax 6.78369 -1.55613 1.43389
lowerneck 1.65795 -1.0843 -5.47066
upperneck -5.35274 -1.43003 6.29019
head -1.91621 -0.79209 3.03852
rclavicle -1.29955e-014 -4.67144e-015
rhumerus -37.2197 -28.5447 -69.6703
rradius 23.1557
rwrist 35.7966
rhand 0.410626 -6.84361
rfingers 7.12502
rthumb 25.9836 -35.0873
lclavicle -1.29955e-014 -4.67144e-015
lhumerus -32.4481 18.6966 78.194
lradius 18.6379
lwrist -31.3941
lhand -8.30792 9.1604
lfingers 7.12502
lthumb 17.6125 38.3827
rfemur -24.6981 -7.15223 24.8473
rtibia 25.4145
rfoot -10.8515 13.841
rtoes 18.8949
lfemur -11.4848 -2.15151 -15.9455
ltibia 52.3913
lfoot 13.9208 -1.00185
ltoes -7.5917
201
root 17.4766 16.3722 17.3185 -172.973 -12.3973 -177.655
lowerback -8.98774 -2.15237 -1.01367
upperback 1.43434 -2.84582 1.21737
thorax 6.66452 -1.4642 1.42837
lowerneck 1.42006 -0.840627 -5.44509
upperneck -4.83009 -1.10605 5.97714
head -1.72311 -0.612731 2.90877
rclavicle -1.86733e-014 -8.94531e-016
rhumerus -36.1026 -28.221 -70.0351
rradius 22.8383
rwrist 36.3054
rhand 0.252022 -6.96364
rfingers 7.12502
rthumb 25.8317 -35.2295
lclavicle -1.86733e-014 -8.94531e-016
lhumerus -32.4724 19.8093 77.6395
lradius 18.4008
lwrist -31.8501
lhand -8.55838 9.12056
lfingers 7.12502
lthumb 17.3715 38.3643
rfemur -23.9931 -7.63251 25.1916
rtibia 25.1927
rfoot -11.4183 14.0983
rtoes 18.6105
lfemur -13.8482 -1.322 -15.877
ltibia 55.8921
lfoot 12.4179 0.445366
ltoes -8.04545
202
root 17.4902 16.3822 17.1894 -173.238 -12.4928 -177.52
lowerback -8.60583 -1.87582 -0.78335
upperback 1.52277 -2.49878 1.14755
thorax 6.51363 -1.28371 1.28805
lowerneck 1.43224 -0.634474 -5.46994
upperneck -4.3581 -0.834175 5.90482
head -1.589 -0.468486 2.87775
rclavicle -4.24778e-014 5.96354e-016
rhumerus -35.231 -28.3232 -70.2776
rradius 22.5327
rwrist 36.8084
rhand -0.0572026 -7.08651
rfingers 7.12502
rthumb 25.5356 -35.3951
lclavicle -4.24778e-014 5.96354e-016
lhumerus -32.435 20.4064 77.1781
lradius 18.1635
lwrist -32.5218
lhand -8.59852 8.96027
lfingers 7.12502
lthumb 17.3329 38.2074
rfemur -23.1007 -7.95183 25.452
rtibia 24.9688
rfoot -12.0122 14.1581
rtoes 18.1706
lfemur -15.9448 -0.61527 -15.8909
ltibia 58.8277
lfoot 10.4634 1.86449
ltoes -4.67978
203
root 17.4987 16.3879 17.0635 -173.615 -12.5577 -177.333
lowerback -8.18605 -1.61017 -0.541593
upperback 1.70666 -2.17251 1.14586
thorax 6.44841 -1.11558 1.20585
lowerneck 1.36782 -0.369916 -5.35891
upperneck -3.98158 -0.485731 5.56185
head -1.47574 -0.28355 2.72966
rclavicle 1.51573e-014 -7.95139e-015
rhumerus -34.1786 -28.4501 -70.5071
rradius 22.4675
rwrist 36.7976
rhand 0.563649 -7.31038
rfingers 7.12502
rthumb 26.1301 -35.5325
lclavicle 1.51573e-014 -7.95139e-015
lhumerus -32.3307 21.007 76.8823
lradius 17.9933
lwrist -33.2756
lhand -8.57324 8.57199
lfingers 7.12502
lthumb 17.3572 37.817
rfemur -22.1244 -8.01626 25.6761
rtibia 24.8118
rfoot -12.5807 14.0996
rtoes 18.6609
lfemur -17.8861 -0.0658632 -15.8905
ltibia 61.1204
lfoot 8.58298 3.39129
ltoes 0.929416
204
root 17.5048 16.3878 16.9376 -173.938 -12.7593 -176.933
lowerback -7.93406 -1.42512 -0.117554
upperback 1.91137 -1.98211 1.25024
thorax 6.50452 -1.01075 1.10652
lowerneck 1.27987 -0.0726141 -5.31659
upperneck -3.67162 -0.0938656 5.21285
head -1.38149 -0.0772326 2.59408
rclavicle -1.96673e-014 1.55052e-014
rhumerus -33.0504 -28.594 -70.7359
rradius 22.3597
rwrist 37.1959
rhand 1.23035 -7.29484
rfingers 7.12502
rthumb 26.7683 -35.4209
lclavicle -1.96673e-014 1.55052e-014
lhumerus -32.1445 21.6441 76.6788
lradius 17.8319
lwrist -33.7252
lhand -8.67678 8.3132
lfingers 7.12502
lthumb 17.2576 37.5669
rfemur -21.3109 -8.13238 26.1274
rtibia 24.7616
rfoot -13.2792 14.0753
rtoes 18.8321
lfemur -19.867 0.390982 -15.6557
ltibia 62.7827
lfoot 7.44556 3.47187
ltoes -0.532566
